/* XPM */
static char *_342804fe0054a769d6feac905b7ca02hPM3AUTkukU54Obw[] = {
/* columns rows colors chars-per-pixel */
"50 50 206 2 ",
"   c #1D1F0B",
".  c #3C0F0C",
"X  c #2C170B",
"o  c #231D0B",
"O  c #2D1C0D",
"+  c #2D1304",
"@  c #331606",
"#  c #301907",
"$  c #341609",
"%  c #3C160D",
"&  c #331C0C",
"*  c #3B1A0C",
"=  c #3E1303",
"-  c #251D13",
";  c #2D1C14",
":  c #341612",
">  c #3F1612",
",  c #351C13",
"<  c #391B12",
"1  c #321F1A",
"2  c #182712",
"3  c #1F201A",
"4  c #1A2914",
"5  c #24230E",
"6  c #2D210B",
"7  c #33210C",
"8  c #252313",
"9  c #2A2414",
"0  c #2D2814",
"q  c #202119",
"w  c #2B251B",
"e  c #202819",
"r  c #2B2E19",
"t  c #332213",
"y  c #3D2115",
"u  c #392912",
"i  c #302418",
"p  c #3F261F",
"a  c #352C1D",
"s  c #3B2C1D",
"d  c #35301E",
"f  c #3C321F",
"g  c #362D24",
"h  c #3C2C23",
"j  c #3C2B29",
"k  c #2A3924",
"l  c #363225",
"z  c #3C3223",
"x  c #3C3229",
"c  c #34362B",
"v  c #3E3331",
"b  c #420D02",
"n  c #450C09",
"m  c #540E05",
"M  c #441405",
"N  c #43140C",
"B  c #4C140A",
"V  c #43190C",
"C  c #5E1604",
"Z  c #551C02",
"A  c #5C1A06",
"S  c #57170B",
"D  c #5D150B",
"F  c #541C0D",
"G  c #5D1D0D",
"H  c #551303",
"J  c #421512",
"K  c #431B11",
"L  c #4D1E14",
"P  c #5D1711",
"I  c #531C13",
"U  c #5D1C13",
"Y  c #551E1A",
"T  c #5C1F1B",
"R  c #631406",
"E  c #631C04",
"W  c #63160B",
"Q  c #6B160D",
"!  c #631B0D",
"~  c #69190D",
"^  c #651613",
"/  c #6B1514",
"(  c #631C12",
")  c #6A1C13",
"_  c #661719",
"`  c #6D1418",
"'  c #641B19",
"]  c #6B1C18",
"[  c #701814",
"{  c #71181C",
"}  c #54210E",
"|  c #5C220A",
" . c #462416",
".. c #4E2413",
"X. c #44251B",
"o. c #4E231B",
"O. c #442B1C",
"+. c #49291B",
"@. c #432A16",
"#. c #532316",
"$. c #5A2213",
"%. c #53241A",
"&. c #5A231B",
"*. c #662007",
"=. c #62210E",
"-. c #642213",
";. c #6A2113",
":. c #63211B",
">. c #422522",
",. c #4B2621",
"<. c #422C24",
"1. c #4A2B23",
"2. c #422F2A",
"3. c #4A2E29",
"4. c #502320",
"5. c #423224",
"6. c #44322B",
"7. c #413330",
"8. c #7C6F67",
"9. c #736C62",
"0. c #7B7464",
"q. c #76776F",
"w. c #7C746A",
"e. c #787971",
"r. c #806F5F",
"t. c #866E6A",
"y. c #826E65",
"u. c #85756E",
"i. c #8F726C",
"p. c #887264",
"a. c #847D75",
"s. c #BFA994",
"d. c #BDA79A",
"f. c #B5AC9C",
"g. c #BBAD9D",
"h. c #B4A995",
"j. c #B5B29E",
"k. c #BBB19E",
"l. c #B4A7A1",
"z. c #BCA7A1",
"x. c #B6AEA3",
"c. c #BBADA2",
"v. c #BBADAC",
"b. c #A6B5A0",
"n. c #B6B2A3",
"m. c #BCB2A2",
"M. c #BBB3A9",
"N. c #B1B2AA",
"B. c #C1A59A",
"V. c #C1AC9D",
"C. c #C1B09E",
"Z. c #C8A7A0",
"A. c #C3ACA3",
"S. c #CCABA5",
"D. c #C2B3A4",
"F. c #CCB5A7",
"G. c #C1B8A7",
"H. c #C5B2A9",
"J. c #E7DECF",
"K. c #EADDCD",
"L. c #F8D8CC",
"P. c #E4DFD3",
"I. c #ECDED5",
"U. c #E6DFD9",
"Y. c #ECDEDA",
"T. c #F4DDD4",
"R. c #FCDCD3",
"E. c #F2DFDB",
"W. c #F8DFDB",
"Q. c #DFE7CF",
"!. c #DEE4DB",
"~. c #DBE3D6",
"^. c #F0E0C9",
"/. c #E5E3D6",
"(. c #EAE6D6",
"). c #EDE7D7",
"_. c #ECE3D5",
"`. c #ECEAD7",
"'. c #E6E6D9",
"]. c #E5E5DB",
"[. c #E9E7DA",
"{. c #E9E6DA",
"}. c #EDE6DB",
"|. c #EAE5DC",
" X c #EFE5DE",
".X c #ECE4DB",
"XX c #E4EADC",
"oX c #EEE9DA",
"OX c #EDE9DD",
"+X c #EEECDE",
"@X c #ECE9DD",
"#X c #E3EBD3",
"$X c #F3E3D5",
"%X c #F8E2D4",
"&X c #F2E4DB",
"*X c #FBE4DC",
"=X c #F3E9DD",
"-X c #F9E8DE",
";X c #F2DEE0",
":X c #EBE6E1",
">X c #E6EAE1",
",X c #EDE9E1",
"<X c #EBEAE2",
"1X c #F4E4E1",
"2X c #F3EBE1",
"3X c #F9E3E6",
/* pixels */
"! ! ! ! ! ! ! ! ! ! ! ! ! ! ! ! / / ( ! | | C E Q Q ! ) G ! W ~ ! D ( ( D ! ( ! ! ! ! ! W W W W ! ! ",
"! ! ! ! ! ! ! ! ! ! ! ! ! ! ! ! / ^ ! ( | Z E E Q ~ ! C ! ( W ~ ! ( G ! ( D W ^ ! ! ! ! ! W W W ! ! ",
"! ! ! ! ! ! ! ! ! ! ! ! ! ! ! ! ( ! W W G -.D D ^ / %.%.@.@.U ' ! ( ~ ~ W ) ! G ! ! ~ ! ! ! G G ! ! ",
"! ! ! ! ! ! ! ! ! ! ! ! ! ! ! ! ! ( R ;.G A ! -./ ] L #.@ & ' P ! ;.R ;.! W ( G ! ! ~ ~ ! ! G U ! ! ",
"! ! ! ! ! ! ! ! ! ! ! ! ! ! ! ! G G ! ! ! ( P ( 4.J - w  X- < +.W ! ( -.A ! W W ! ! G G G G ! ! ! ! ",
"! ! ! ! ! ! ! ! ! ! ! ! ! ! ! ! =.A ;.D ) ! ' ( J . =X_.OX}.< < ) ( G G ! =.~ ~ ! ! G G G G ( ( ! ! ",
"! ! ! ! ! ! ! ! ! ! ! ! ! ! ! ! A =.G ! D ' ,.> OX,X].,XY. X'.'.@ +.&.I ( D ) ! ! ! ! ! ! ! ! ! ! ! ",
"! ! ! ! ! ! ! ! ! ! ! ! ! ! ! ! =.A G -.( ( > R.|.|.].,X X X'.[.R.* b $.( ) W ~ ! ! ! ! ! ! ! ! ! ! ",
"! ! ! ! ! ! ! ! ! ! ! ! ! ! ! ! G -.P ( +.% 8 {.'.@X.X}.l (.`.(.{.+XX t L #.U $.! ! ~ Q W W E E ! ! ",
"! ! ! ! ! ! ! ! ! ! ! ! ! ! ! ! G A ' ( K % +X'.<X'.l g OX/.).(.{.{.%X%XV #.U U ;.! R ~ W W ) W ! ! ",
"! ! ! ! ! ! ! ! ! ! ! ! ! ! ! ! ) ^  .* 8 OX/.,XOX{.+X@X).@X_.z |..X>X'.'.9 o.o.^ ^ ) ( ;.E A A ! ! ",
"! ! ! ! ! ! ! ! ! ! ! ! ! ! ! ! Q /  .* P.2X].|./.l (.(./.=Xs $X:X|.XX'.=X'.L o.( ^ W W ~ R ! E ! ! ",
"! ! ! ! ! ! ! ! ! ! ! ! ! ! ! ! ^ ] 5 0 XX/.1XY.OX{.}.@XT.h {.|.OX,X{.|..X.X_.9 * 1.:.U ( ! =.G ! ! ",
"! ! ! ! ! ! ! ! ! ! ! ! ! ! ! ! ] W 9 _.XXXXj 1XOX/.[.P.-X$X}.@X/.|. X XOXOX}.}.& * P U ! W -.G ! ! ",
"! ! ! ! ! ! ! ! ! ! ! ! ! ! ! ! I #.O $X].>X|.1X&X&X&X2X.X X].:X-XI.g j &XU. X XOX/.t t F #.Q [ ! ! ",
"! ! ! ! ! ! ! ! ! ! ! ! ! ! ! ! %.M _.$X'.c  X X&Xj x I. X X<X:Xg _.=X&X_. X}.{.{.{.$XO %.#./ Q ! ! ",
"E E E E | | ~ Q W ^ G $.A ! E E +.< V.%X$Xz /.}.l }..X X.X.X&X X'.<X@X[./.=X/.{.3 q , >.T T ! ! ! ! ",
"*.E E A | Z ~ Q ) ^ G $.! ! E E +.* d.d.=X_.=X{.g }.OXU.x &X/..XXXXX/.{.}..X@Xw <XXX, : :.T ! ) ! ! ",
"P ( ( ' ^ ] o.%.X O < X.o.%._ _ y < D.D.K.z =X/.}./.2X/._.2X_.z @X}._.-X@X{.- n.l._.}.8 # X.( ( ! ! ",
"' P P :.^ _ N N , *XT.< N J ^ ^ +.< d.d.D.x.M.z a 2Xf.=X_.=Xg =X{.{.=X$X/.8 M.n.M.&X}.@X# 7 ;.D ! ! ",
"` ` @.&   8 !.>X<X!.<X<X~.e ; 1 O.& D.D.f.k.m.f.M.x.x.x.x.m.z x.M._.g.=Xc.i x.x.M.n.}._.%X, O s ! ! ",
"` { y + XXXXXXXX].<X].].>XXX&X; # , d.D.g.D.m.n.x.g.m.c.z x.m.g.M.M.x.g.5.f.m.M.n.M.P.=XT.$X%X& ! ! ",
"/ ^ I B t $X&X&X&X<.x h 1XE.{.,Xg.O f g.f.k.f.m.g.D.m.s s g.m.z m.g.j.j.s c.g.g.c.=XW.h 5.<.b.2 ! ! ",
"^ / &.T s t g &X&X&XY.&XE.h l {.<.V.g.s k.m.m.k.g.g.g.5.m.g.g.m.g.m.j.M.s g.D.c.=X_.<.<.z.A.k 4 ! ! ",
"} } #.#.O X <.h I.-X'.[.}.=X{.{.$X5.f.m.d z f.j.k.m.g.z f.D.a m.k.f.g.f n.j.g._.R.1._.g.m.M., < ! ! ",
"$.F #.= t %X&X$X6.a '.[.}./.OX'.$X_.=Xx.j.z z m.k.g.d.m.g.g.5.g.k.m.m.s j.j.g.s +.B.D.g.m.o : <.! ! ",
"( ' O O |./.,X2XI.2.6.I.OX].1X1X_._.}.=Xf.m.m.a g.m.m.g.m.k.g.k.k.h.z s c.c.z z n.j.k.6 V V _ _ ! ! ",
"' D t %X'.OX].U.&X&X<.h /.'.Y.7.z g x z `.(.f.m.s s g.g.g.g.f k.g.k.<.d.D.c.a }.j.j.6 O K %._ ' ! ! ",
"#.&.< <.3X;X<X<X@X].-Xs j  X1XE. X X}.g l (.).m.g.D.h x.k.m.f.g.C.g.g m.z.6._.M.0.5 V ..^ W ) ( ! ! ",
"%.b < >.j 1X].>X].]._.&Xz g &XE. X.X{.|.2X/._.f.m.g.d.z m.f.G.k.g.k.s c.2.t.M.8.o 0 ..#.^ / ^ ( ! ! ",
"..M < L.,Xv 1XE.=X=XQ.`.).z h &X|.:X X X/.2X}.M.g.x.g.g.z m.f.m.V.V.z z e.N.u.1 I I -.U G G C ! ! ! ",
"..#.X.y x.|.2.1X}._.#X#X(.).h &X X:X.X.XOX/.=Xx.g.m.m.f.m.s m.f.V.O.g w.q.q.; ; Y T ( D -.! ! W ! ! ",
"~ W ( D 7 s.A.+.3.T.'.XX'.'.&Xh  X X&X/.}./.)._.m.m.g.k.k.f a m.v.v x w.r.t B #.! ! ~ ~ ! ! G G ! ! ",
"~ R ( ( @.# A.A.>.3.XXXX|.OXI.2.g &X X.X}.@X_.m.g.m.k.k.f.k.z d v.j 9.a.7 & I I ! ! ! ! ! ! G G ! ! ",
"! ! $.$.] ] # B.j.r 1.R.}._.OX{.z x.c.=X$X<.h 5.z s s z d.d.S.Z.w w.i., n &.U U G G ! ! ! ! ! ! ! ! ",
"! E $.F ^ ] @.& j.n.,.1. X_.|.{./.z H.<.p A.H.c.x.g.m.m.<.<.B.S.- w.3.: &.Y U P G G ! ! ! ! ! ! ! ! ",
"$.G W ! G ( -.S * +.f.k.>.*X/.@X$X5.a @Xx.n.M.x.A.<.<.<.H.h 5.5.s 5.n I ^ ] ! ! G G ! ! ! ! Q ~ ! ! ",
"G -.! W ( ( U -. .@ z g.A.1./.{.$XK.=XJ.n.M.g g <.$XW.A.y.z.m.g.O & &.&.^ ^ ! ( G G ! ! ! ~ ~ ~ ! ! ",
"( m ;.! G G W W ' ( @ O.m.f.2.6._.=X=X_.2Xg  X Xn.n.x.f.F.& * * M &.S -.W ( ! ! ! ! ! ! ! ! ! ( ! ! ",
"G -.! ! G =.~ ^ ( ( @.& g M.A.z.z _._.=Xg }.M.n.w.n.x.i X O. .+.#.I U S ( ! ( ! ! ! ! ! ! ! ! ! ! ! ",
"! ! ! ! ~ ~ ! ! ! W ' ( & O.g.A.<.W.&X<.&Xc.w.}.g.D.R.* U T ^ W ! ! G G | G ! ! Q Q ~ ! ! ! G G ! ! ",
"! ! ! G Q ~ ! ! ~ ) W ' s & %XA.A.<.6.E.c.u./.x.O O *  .$.F W ) ! ! G G G | ! ! ~ ~ ! ~ ! ! G G ! ! ",
"! ! ! ! ! ! ! ! W ! W ) U P 7 ^.x. Xa M.f.=X$ * &.F ' ( ! W ;.! ! ! ! ! ! ! ! ! ! ! G G G G ! ! ! ! ",
"! ! ! ! ! ! ! ! W ) W W ( :.u 7 {.x.n.M.; O  . .I T W ;.! ~ C ! ! ! ! ! ! ! ! ! ! ! G G G G ! ! ! ! ",
"Q Q G G G G ! ! W ! ! ^ G ! $.M 5 l V.p.M #.D ( ! -.! H ! G ( ! ! ! ! ! ! ~ ! ! ! ! G G ! ! ! ! ! ! ",
"~ ~ G G G ! ! ! ;.! W ) ! ( } $.8   , , %.#.-.U ! C -.=.! ! C ! ! ! ! ! ! ! ! ! ! ! G G ! ! ~ ~ ! ! ",
"( ( ! ! ! ! G G W W ! ! ! A W W ' ' m P D ( ! ! W W W W ! ( ) W G G ~ ~ ! ~ ! ! G G ! ! ~ ~ ! ! ! ! ",
"! ( ! ! ! ! G G ! ) ! ! ! ! W ! ( ' ( P -.G ! ! W ~ W ) ! ( ( ( G ! ~ ~ ! ~ ! ! G G ! ! ~ ~ ! ! ! ! ",
"! ! ! ! ! ! ! ! ! ! ! ! ! ! ! ! ! ! ! ! ! ! ! ! ! ! ! ! ! ! ! ! ! ! ! ! ! ! ! ! ! ! ! ! ! ! ! ! ! ! ",
"! ! ! ! ! ! ! ! ! ! ! ! ! ! ! ! ! ! ! ! ! ! ! ! ! ! ! ! ! ! ! ! ! ! ! ! ! ! ! ! ! ! ! ! ! ! ! ! ! ! "
};
