/* XPM */
static char *b121cca8a2be4f94be6ad2c75348e5830jkI8CaZlZiI2M7b[] = {
/* columns rows colors chars-per-pixel */
"50 50 244 2 ",
"   c #191518",
".  c #24101F",
"X  c #372603",
"o  c #3B351E",
"O  c #302911",
"+  c #1C0C2C",
"@  c #1D0C32",
"#  c #1A0B3B",
"$  c #1A1421",
"%  c #210A2E",
"&  c #230C37",
"*  c #3C2D25",
"=  c #3E3221",
"-  c #3A2A38",
";  c #3C3739",
":  c #272738",
">  c #1D2331",
",  c #592A0A",
"<  c #4B3503",
"1  c #5C3401",
"2  c #573803",
"3  c #472B1B",
"4  c #5D2C15",
"5  c #582718",
"6  c #43311B",
"7  c #4A3219",
"8  c #5C3114",
"9  c #583619",
"0  c #4E2C00",
"q  c #652B08",
"w  c #74250D",
"e  c #752A0D",
"r  c #782A0A",
"t  c #79240E",
"y  c #643302",
"u  c #6B3401",
"i  c #6C3902",
"p  c #633607",
"a  c #713700",
"s  c #632C14",
"d  c #6D2C15",
"f  c #642B1D",
"g  c #6C2A1C",
"h  c #6A2519",
"j  c #752711",
"k  c #7B2514",
"l  c #742A13",
"z  c #7A2913",
"x  c #76271A",
"c  c #7A251B",
"v  c #742B1B",
"b  c #643318",
"n  c #7E301A",
"m  c #5A1D37",
"M  c #442E23",
"N  c #472C29",
"B  c #5C2C24",
"V  c #572B28",
"C  c #433223",
"Z  c #493328",
"A  c #5B322B",
"S  c #563526",
"D  c #462639",
"F  c #463637",
"G  c #523236",
"H  c #6C2721",
"J  c #662B23",
"K  c #6B2A23",
"L  c #682827",
"P  c #722924",
"I  c #653327",
"U  c #61263F",
"Y  c #1D5217",
"T  c #1F4D15",
"R  c #284A17",
"E  c #225313",
"W  c #27541A",
"Q  c #304A11",
"!  c #367C19",
"~  c #3B7B1C",
"^  c #3B771A",
"/  c #337818",
"(  c #2B4821",
")  c #245420",
"_  c #324A25",
"`  c #3C6E28",
"'  c #3B7524",
"]  c #357A23",
"[  c #3C7925",
"{  c #3B752B",
"}  c #3C7A29",
"|  c #347624",
" . c #3D7436",
".. c #37722E",
"X. c #454502",
"o. c #55500F",
"O. c #7C5D03",
"+. c #44771C",
"@. c #5A6919",
"#. c #796608",
"$. c #66651A",
"%. c #51532E",
"&. c #7B5C2B",
"*. c #795929",
"=. c #6D5C34",
"-. c #6E5C3C",
";. c #6C583B",
":. c #745B35",
">. c #7A5B34",
",. c #74553B",
"<. c #7B553C",
"1. c #755A3C",
"2. c #7A5A3D",
"3. c #785635",
"4. c #6C5930",
"5. c #446E28",
"6. c #5B6623",
"7. c #43742A",
"8. c #437828",
"9. c #476C38",
"0. c #51683A",
"q. c #437333",
"w. c #447239",
"e. c #69632E",
"r. c #7C652A",
"t. c #7C782D",
"y. c #68623B",
"u. c #74613A",
"i. c #6C7B35",
"p. c #727B36",
"a. c #76783A",
"s. c #6E7A29",
"d. c #1C0A40",
"f. c #2F1650",
"g. c #0D2B4E",
"h. c #152956",
"j. c #0E295D",
"k. c #3B2A4D",
"l. c #3B264B",
"z. c #2E3A4B",
"x. c #353745",
"c. c #3D2556",
"v. c #392953",
"b. c #3C245B",
"n. c #352759",
"m. c #2B3C57",
"M. c #333F56",
"N. c #3D2363",
"B. c #3E2764",
"V. c #0F2A61",
"C. c #4A2845",
"Z. c #532B47",
"A. c #433643",
"S. c #42255D",
"D. c #5A2556",
"F. c #412365",
"G. c #511D4E",
"H. c #3C5167",
"J. c #394D78",
"K. c #2B517E",
"L. c #345274",
"P. c #364D72",
"I. c #394253",
"U. c #484D58",
"Y. c #4B4A52",
"T. c #6D5B44",
"R. c #6A5D4B",
"E. c #675B42",
"W. c #745642",
"Q. c #7B5643",
"!. c #755B43",
"~. c #7A5A43",
"^. c #745A49",
"/. c #7B5C48",
"(. c #75554A",
"). c #725851",
"_. c #4B6942",
"`. c #526A44",
"'. c #796448",
"]. c #6C6D45",
"[. c #424E63",
"{. c #424D6E",
"}. c #6E6B71",
"|. c #822217",
" X c #845D0C",
".X c #846206",
"XX c #8D7111",
"oX c #85582E",
"OX c #82533C",
"+X c #815835",
"@X c #936C26",
"#X c #896A3B",
"$X c #93693B",
"%X c #8A712B",
"&X c #855843",
"*X c #8D6643",
"=X c #8B6A43",
"-X c #896748",
";X c #926649",
":X c #8A6852",
">X c #946754",
",X c #358026",
"<X c #6E802C",
"1X c #CBA42D",
"2X c #C8A42C",
"3X c #CCA437",
"4X c #D0AA34",
"5X c #BD9C5C",
"6X c #BDAF4D",
"7X c #BB996E",
"8X c #BBAB76",
"9X c #CC984B",
"0X c #CD9955",
"qX c #D59A57",
"wX c #CAA948",
"eX c #D4B74A",
"rX c #CAA954",
"tX c #D3A556",
"yX c #CBB855",
"uX c #D6BA53",
"iX c #CAAA4A",
"pX c #C59B66",
"aX c #C79A76",
"sX c #D29A68",
"dX c #C7A863",
"fX c #CFB071",
"gX c #E1BB5A",
"hX c #B9C278",
"jX c #CEC24F",
"kX c #C3C26A",
"lX c #1E5593",
"zX c #1F5287",
"xX c #2A4E87",
"cX c #314E84",
"vX c #2B5386",
"bX c #2B528B",
"nX c #23548B",
"mX c #345283",
"MX c #315089",
"NX c #285491",
"BX c #294F90",
"VX c #B7AA86",
"CX c #B4A89C",
"ZX c #C5B284",
/* pixels */
"1.!.,.Q.1.2.:.1.1.1.!.!.1.1.W.W.~.~.^.^.1.1.2.2.1.1.1.1.2.2.-.-.1.:.1.1.!.;.!.1.(./.W./.1.'.,.W.1.1.",
",.!././.:.1.1.u.1.1.!.!.1.1.W.W.~.Q.^.^.1.1.2.2.1.1.1.1.2.2.-.-.1.1.2.~.1.1.1.1./.W.~.(.-.;.'.1.1.1.",
"1.=.1.=.2.2.~.<.W.!.W.W.~.~.1.1.1.1.>.:.~.~.!.!.2.2.Q.Q.!.!.Q.Q.W.~.Q.W.,.1.:.:.1.2.:.2.u.:.4.:.1.1.",
"=.-.:.=.1.3.Q.Q.1.1.!.!.W.W.1.1.:.>.:.:.1.<.1.1.1.1.W.Q.!.!.Q.Q.W.!.<.Q.1.~.:.:.2.3.:.:.=.=.:.:.1.1.",
"/./.1.:.2.2.3.+X&.&.&.&.+X+X&.&.:.:.oXoX~.~.Q.~.oXoX>.>.>.>.>.>.~.Q.oXoXoXoX&.&.+X&.2.2.W./.2.<.1.1.",
"~.~.:.u.-X-X*X;X#X#X#X#X*X*X#X#X=X=X$X$X:X:X:X:X$X$X=X=X=X=X*X*X:X:X;X*X$X#X=X#X$X$X-X:X'.:X<.~.1.1.",
"<.~.~.,.Z M = C N N C C C C 6 6 6 6 = = N N M M 6 6 6 6 o o M M 6 6 C 6 x.: xXxXcXV.mXK.U.I.^.T.1.1.",
"<.<.~.~.3 M C C N N C C C C 6 6 6 6 = = N N M M 6 6 6 6 o o M M 7 6 C 6 x.> vXvXMXj.mXcXU.z.!.^.1.1.",
":.:.W.W.R 0.| [ w.R 8.8.[ } Q 0.! / 9.R ! ! ] ] Y q.^ 8.0.Q o o = = Z 6 - : BXbXJ.h.vXvXH.m.R.R.1.1.",
">.:.~.~.R 0.} ] 9.) ' } [ | Q 9.! ! 9.W ! ! ] ] W ` 8.8.0.O = = = = 6 M x.: bXbXJ.h.xXvXH.m.R.R.1.1.",
"1.2.E.E.2 fXjXeXkXX.jXjXuXuXQ hXuXjXhXX.eXuXuXuXX.kXyXyXfX1 < < < < 0 2 C O bXxXJ.h.vXbX[.m.2.2.1.1.",
"~.<.E.E.X.ZXeXeXkXX.jXjXuXuXX.hXyXuX8Xo.eXuXuXgXX.8XjXyXfX@XdXdX8X#XfXdXCXO bXxXP.h.vXbXH.z.1.>.1.1.",
"2.<.^.^.( `.+.^ 9.T +.+.' 8.R 9.| ' _.R ! ! ] ] W  .+.+.$.t.tX XiXXXwX.XZXX MXMX{.h.BXBXH.m.:.:.1.1.",
"<.OX^.W._ 0.+.^ w.W +.+.' 8.W 9.' [ _.( ! ! ,X] Y w.+.+.$.t.tX X6XXXiX.XVXX MXcXJ.h.BXBXH.m.:.:.1.1.",
"u.:.y.y.( `.` 8. .Y ^ ~ { { Y  .[ ^ q.E ^ +.| } Y  .7.5.@.<X6X#.dX@XrX.XVXX nXnXL.g.lXlXJ.m.2.2.1.1.",
":.>.y.y._ _.8.'  .W ~ ^ { { E ..' 8.{ E +.+.{ { Y  .5.7.@.s.6X#.rX@XiX.XVXX nXnXL.g.lXlXJ.m.<.2.1.1.",
"1.1.1.,.R 9.} | q.E } ' ' [ R 9.' [ 9.W q.q.' ' W w.,X] 6.i.iX.XrXXXrX.X8XX vXvXP.h.nXnX[.m.~.!.1.1.",
"1.!.!.1.( 9.| | q.W [ ' ' [ R 9.[ ' 9.R 7.` [ [ )  .| ] 6.i.rXO.rXXXrXO.ZXX vXxXJ.h.nXNXH.M./.!.1.1.",
",.2.<.2._ `.{ } 7.T [ } [ [ T q.] |  .E } | [ ! E 9.[ [ @.p.eX.XwXXXyX.X8XX NXNXmXj.zXNXH.M.T.!.1.1.",
"Q.2.3.2.R `.| ' q.E [ } ] ] E q.] |  .Y [ | ! ! W 9.^ [ $.s.eXwXwXXXiXwXVXX nXnXK.j.nXnX[.z.-.!.1.1.",
"!.-.1.1.( _.7.7.5.W ' ' } ' W ..{ { q.T 8.} [ ' R 9.7.7.$.a.6X#.rXXXyX#.VXX K.vXP.h.mXK.[.z.^.T.1.1.",
"!.-.1.1.( 0.7.8.q.E [ } } } Y q.{ { q.E ' ' ' ' _ 9.5.7.$.a.yX#.wXXXrX#.VXO K.K.J.g.vXvX[.z.'.T.1.1.",
"1.1.>.3.%.y.6.6.e.X.6.6.6.6.Q e.6.6.e.o.6.6.6.6.< e.6.6.$.r.dXdXfX@XrXdX8XX Y.Y.Y.- Y.Y.Y.F ,.,.1.1.",
"1.1.>.>.y.].p.p.a.a.p.p.p.p.].].a.i.a.a.i.p.i.i.a.a.i.p.%Xt.%X%X@X@X@X@X=X=X}.}.}.}.}.}.R.).~.2.1.1.",
"W.~.2.<.R.R.u.-.1.,.1.1.1.2.1.W.1.1.2.<.~.~.'.T.2.2.y.-.2.1.W.~.1.:.*.r.*.>.Q.~.W.!.1.2.T.T.:.u.1.1.",
"~.W.3.2.R.R.-.;.1.2.1.:.2.2.1.1.1.1.~.<.!.~.R.R.2.,.-.y.,.1./.W.2.~.*.*.>.>.W.~.!.1.!.1.T.'.1.:.1.1.",
"~.W.2.1.F ; = C M M C C M M C = 7 3 5 5 5 5 3 3 , s 5 5 s 4 B 5 N M 8 , B V h 5 B 5 , , 3 S ;.!.1.1.",
"!.W.2.1.F ; M Z Z M C C M M Z = 7 S b s I I A A b s I 9 b b B I G G 8 8 B B f K I B b s S Z ;.'.1.1.",
">.>.&.&.Z C M M M Z 6 M N N = C V V l v j w g K z z H H t k l w L J l j L J |.k K K w j I B &XQ.1.1.",
">.>.&.&.F M Z M N M Z Z N N = = V V v j w n h K z z g P t t j z K P w l L J c k K K w z B B Q.&X1.1.",
"!.-.;.-.A.- A.- - - F - D C.- ; M Z sX0XqX9Xi pXqX0XaX, qX0X0XqXq sXqXqXpX1 0XqX7X2 qX0X8X9 1.1.1.1.",
"T.!.-.u.x.  - - . D - . D D   - M Z y i a a y y u a p , u u i y u y u a 1 1 a u 2 2 y i 9 7 :.1.1.1.",
"~.~.1.1.;   N.N.@ v.k.@ N.F.@ k.C.Z.l l c c H P l z L J z k x x s f z z J f |.|.b 4 k k S S W.~.1.1.",
"W.~.1.1.;   N.N.@ v.k.@ F.F.@ k.D Z.l l c c H P l z L J k k x x f f z z J f |.|.b 4 k k S S W.~.1.1.",
"1.1.>.>.;   N.N.@ v.k.% F.F.+ l.D G d d j l d d e l s s e j z z f J l l K H r r s q j j A A W.W.1.1.",
":.1.>.>.;   F.N.@ v.C.% F.F.+ l.D G d d l l d d e e s s j j j z f f l l K H r r s q j j A A W.W.1.1.",
"^.^.~.^.x.$ N.N.# v.k.@ N.N.+ k.D Z.v P x c g g l x J f x c c x s f x x L L k k J f x x A A 2.2.1.1.",
"^.^.~.~.x.  N.N.# v.k.@ N.N.+ k.D Z.v g c x g g l l f f x l x x s f z x L L k k J f x c A A 2.2.1.1.",
"W.1.1.1.;   c.c.@ k.k.% N.N.# v.G.D.e e e e g K r r K f r r j j s b e j s s c c 8 8 x x 9 S W.!.1.1.",
"W.W.1.1.;   c.c.@ k.k.+ N.N.# v.G.D.e e j e g K r r K f r r j j s b e e s s c c 8 8 c x 9 9 W.W.1.1.",
"1.1.~.W.A.  S.S.& c.l.% S.b.& k.N G 1X1X3X3X1 5X1X1XdX2 1X4X3X3X1 pX4X3X0Xy 2X1XpX1 1X2XaX< u.e.1.1.",
"1.1.~.W.F   S.c.& c.l.& b.b.& k.N F 1X2X3X3X1 dX4X2X5Xo.1X1X3X3X1 pX3X2XdX1 1X2XpX1 2X4X7X9 e.e.1.1.",
"u.=.!.!.;   F.N.d.n.v.@ c.c.+ k.D C.tX9X0X0Xb 7X9XtXaX, 9X9XtX0Xq aX9XqXpXy 0X0XaXy 0X0XaX9 W.^.1.1.",
"u.=.;.1.;   b.b.# B.k.+ S.c.+ k.C.Z.y i i i , b i y 8 , i i y y s s i y i y i u y y u i 9 8 ^.~.1.1.",
"-.1.^.^.;   c.S.d.n.c.& N.N.d.n.m U z j w l h g z z P K w e j l b b e e s f l l b 4 j l B B 2.~.1.1.",
"-.u.^.T.;   c.c.d.B.l.@ F.N.# b.m U z w j z g K z j H P j w j j , s l l I 4 l l b 4 j v B B /.,.1.1.",
"OX<.OX&Xu.'.:X;X=X#X$X#X*X*X=X=X'.'.*X;X>X;X#X#X;X;X#X=X>X;X;X*X;X$X>X&X>X>X=X=X#X$X;X<.(./.e.y.1.1.",
"&X&XOXOX=.u.&X<.>.>.&.*.+X3.>.>.u.=.OXOX<.<.r.*.OXOX>.*.&XOX+X3.+X3.OX&X<.&X+X>.&.&.<.&X~./.e.e.1.1.",
"1.1.1.1.1.1.1.1.1.1.1.1.1.1.1.1.1.1.1.1.1.1.1.1.1.1.1.1.1.1.1.1.1.1.1.1.1.1.1.1.1.1.1.1.1.1.1.1.1.1.",
"1.1.1.1.1.1.1.1.1.1.1.1.1.1.1.1.1.1.1.1.1.1.1.1.1.1.1.1.1.1.1.1.1.1.1.1.1.1.1.1.1.1.1.1.1.1.1.1.1.1."
};
