/* XPM */
static char *_c927ef144364aaea29bcba19e80c709I7aryVjC4Bg6q6d1[] = {
/* columns rows colors chars-per-pixel */
"50 50 196 2 ",
"   c #290E05",
".  c #291D07",
"X  c #2C1B0C",
"o  c #341C02",
"O  c #3C1E01",
"+  c #371C0A",
"@  c #3B1F0C",
"#  c #251D14",
"$  c #2E1D14",
"%  c #2E1E1C",
"&  c #331716",
"*  c #341D13",
"=  c #3C1F17",
"-  c #331D19",
";  c #3B1F1E",
":  c #2F2000",
">  c #25250E",
",  c #2B230C",
"<  c #352402",
"1  c #3B2102",
"2  c #382806",
"3  c #32220C",
"4  c #3D240C",
"5  c #232513",
"6  c #2C2213",
"7  c #252815",
"8  c #292C17",
"9  c #26231A",
"0  c #2D231A",
"q  c #242819",
"w  c #2C2A1A",
"e  c #332214",
"r  c #382016",
"t  c #32221B",
"y  c #3C1F21",
"u  c #262122",
"i  c #2C2827",
"p  c #3C2523",
"a  c #362422",
"s  c #411E01",
"d  c #441A0A",
"f  c #5D1607",
"g  c #561F00",
"h  c #591D05",
"j  c #5D1C0B",
"k  c #5E160A",
"l  c #5C1E12",
"z  c #601406",
"x  c #631C07",
"c  c #64150A",
"v  c #6B170B",
"b  c #631B0C",
"n  c #6C190D",
"m  c #641711",
"M  c #691513",
"N  c #631A12",
"B  c #691B12",
"V  c #432101",
"C  c #40250A",
"Z  c #41290F",
"A  c #5A210D",
"S  c #5E3605",
"D  c #402711",
"F  c #5F2114",
"G  c #5F3D17",
"H  c #63220D",
"J  c #702F0F",
"K  c #653706",
"L  c #6C3907",
"P  c #6C3608",
"I  c #653D09",
"U  c #6B3A0B",
"Y  c #663908",
"T  c #703C0C",
"R  c #662214",
"E  c #6C3713",
"W  c #643D10",
"Q  c #6C3911",
"!  c #6E361A",
"~  c #783918",
"^  c #703B13",
"/  c #794E09",
"(  c #7B550D",
")  c #765A0E",
"_  c #795E0F",
"`  c #6F4110",
"'  c #704D17",
"]  c #7F4D11",
"[  c #774F1C",
"{  c #7B4E1D",
"}  c #755412",
"|  c #7D5615",
" . c #755B14",
".. c #7D5816",
"X. c #75551B",
"o. c #7D551D",
"O. c #76581C",
"+. c #7A5A1B",
"@. c #7C4E23",
"#. c #7F492D",
"$. c #6D5429",
"%. c #745423",
"&. c #7D5522",
"*. c #765923",
"=. c #7B5922",
"-. c #76552C",
";. c #7D542A",
":. c #73592D",
">. c #7B5929",
",. c #6D4F33",
"<. c #7B4F34",
"1. c #724B3A",
"2. c #6C5435",
"3. c #6E563B",
"4. c #6D5939",
"5. c #6D5936",
"6. c #725536",
"7. c #785630",
"8. c #725933",
"9. c #7B5B33",
"0. c #725639",
"q. c #7D543A",
"w. c #74593B",
"e. c #7A5C3A",
"r. c #7E6024",
"t. c #766031",
"y. c #725640",
"u. c #745948",
"i. c #7A5844",
"p. c #8A4A0A",
"a. c #87530C",
"s. c #894A17",
"d. c #824E1A",
"f. c #834815",
"g. c #835315",
"h. c #835915",
"j. c #82551C",
"k. c #82531D",
"l. c #8A571B",
"z. c #825A1B",
"x. c #895C1B",
"c. c #895A12",
"v. c #91521F",
"b. c #844E25",
"n. c #884F22",
"m. c #814F2A",
"M. c #8C4C2B",
"N. c #825222",
"B. c #815321",
"V. c #815225",
"C. c #835525",
"Z. c #825322",
"A. c #895323",
"S. c #825A24",
"D. c #81572A",
"F. c #835129",
"G. c #8C522C",
"H. c #835B2B",
"J. c #844E34",
"K. c #865133",
"L. c #A56F27",
"P. c #A67028",
"I. c #A9712A",
"U. c #A96A37",
"Y. c #AC853D",
"T. c #A6893B",
"R. c #B2813C",
"E. c #AD8740",
"W. c #A58C44",
"Q. c #AC8D44",
"!. c #AE874E",
"~. c #AD8C4B",
"^. c #B38746",
"/. c #B38345",
"(. c #B48E46",
"). c #B4874C",
"_. c #B5844A",
"`. c #B18B4A",
"'. c #B88C49",
"]. c #B98849",
"[. c #AB944E",
"{. c #B3974E",
"}. c #AF8653",
"|. c #AD8A52",
" X c #A7855F",
".X c #B18452",
"XX c #B38954",
"oX c #BD8C52",
"OX c #9F8B66",
"+X c #9D8E6D",
"@X c #A78760",
"#X c #A48964",
"$X c #A98863",
"%X c #DB9B5A",
"&X c #C69B68",
"*X c #C7A661",
/* pixels */
"N N b b o 4 O 1 V O d O O 1 O 1 1 1 1 1 1 1 1 1 1 1 1 1 1 1 1 1 + @ O O 1 O 1 1 O O s V > 5 N N b b ",
"k b b b D 3.8.8.-.7.1.i.0.,.i.0.0.0.0.0.0.0.0.0.0.0.0.0.0.0.0.0.w.y.0.0.0.0.2.2.0.0.9.$.8 5 m N b b ",
"m B b z 1 2.>.%.=.X.H.D.X.O.X.X.=.=.=.=.=.=.=.=.=.=.=.=.=.=.=.=.o.X.j.z.+.X.X.=.&.&.&.&., , B B b b ",
"m N b b C 0.>.-.X.=.;.;.X.X.O.=.X.X.X.X.X.X.X.X.X.X.X.X.X.X.X.X.o.X.o.o.=.X.=.X.D.&.&.S., , B c b b ",
"N N z b O 2.X.X.z.| Z.j...z.( ( j.j.j.j.j.j.j.j.j.j.j.j.j.j.j.j.h.g.g.g.X.o.=.=.V.V.@.A., e M B b b ",
"b b b b O w.=.=.| z..XXXY.(.E.(.).).).).).).).).).).).).).).).).^.^.'.'.XX!.=.X.&.V.@.V.6 e M M b b ",
"f b x x o w.&.X.S.o.Q Q U U ` K U U U U U U U U U U U U U U U U W Q I S G s O 8.>.;.&.&.6 6 m m b b ",
"b b x b O w.&.&.o.Z.Q Q B.k.&.V.B.B.B.B.B.B.B.B.B.B.B.B.B.B.B.B.;.D.&.H. XV 1 :.;.;.D.&.6 6 N N b b ",
"b b b b O 0.&.&.&.&.! ! F.F.m.F.&.&.Z.Z.&.&.&.&.&.&.&.&.&.&.&.&.;.;.&.&.#X1 1 8.&.&.o.o.7 > b b b b ",
"b b b x O 0.&.&.&.&.! ! F.F.F.F.&.&.&.Z.&.&.&.&.&.&.&.&.&.&.&.&.;.;.&.&.#X1 1 8.&.&.o.o., > b b b b ",
"b j b b O 0.=.&.o.o.Q Q o.Z.&.Z.o.o.o.o.o.o.&.&.o.o.o.o.o.o.o.o.B.B.o.o.@Xs O 6.&.&.j.k.e 6 b b b b ",
"N j b b O 0.&.&.o.o.U Q o.Z.o.&.&.&.&.&.&.&.&.&.&.&.&.&.&.&.&.&.V.B.| o.@XV O 0.&.&.k.k.6 0 b b b b ",
"N l b b O 0.&.&.o.o.U U o.o.o.o.&.&.&.&.&.&.&.&.&.&.&.&.&.&.&.&.B.B.o.o.$XO 1 0.&.&.A.A.t % N N b b ",
"N l b b O 0.&.&.o.o.U U o.o.o.j.&.&.&.&.&.&.&.&.&.&.&.&.&.&.&.&.V.B.o.o.#X1 O 3.&.&.A.A.0 0 N N b b ",
"N m b b O 0.&.&.k.k.E E &.;.&.V.o.o.o.o.o.o.o.&.Z.Z.o.o.o.o.o.o.&.&.+.| #X1 1 4.X.X.j.o.6 6 b b b b ",
"N m b b O 0.&.&.k.k.E E &.&.&.D.o.o.o.o.o.o.o.&.&.Z.o.o.o.o.o.o.&.&.+.+.OX1 1 4.X.X.j.o.6 6 b b b b ",
"N b b b O 0.B.B.k.k.Q U | z.] l.| | | | | | | | | | | | | | | | a.c.| | +X< V >.B.B.-.-.* * H k b b ",
"N b b b O 0.F.V.k.f.U ^ `.).oX_.`.`.`.`.`.`.`.`.`.`.`.`.`.`.`.`.'.R.`.`.+X2 O >.o.Z.-.-.- * b b b b ",
"B m b x 1 6.*.*.:.t., . 5 5 # w 6 6 6 6 6 6 6 6 6 6 6 6 6 6 6 6 9 i 6 6 3 X 1 5.-.%.x.h.6 e h h b b ",
"B b b x O 0.*.*.:.:.e 3 8 7 9 9 0 0 0 t 0 0 0 0 0 0 0 0 0 0 0 0 u u 6 6 e e o 2.-.%./ h.e 6 h H b b ",
"N m b b O 0.j.o.| z.o.o...} ..| j.j.j.j.j.j.j.j.j.j.j.j.j.j.j.j.F.F.k.A.d.A.=.=.>.-.z.o.% % R k b b ",
"N b b b O 0.j.o.g.g.X.S. .+.| | j.j.j.j.j.j.j.j.j.j.j.j.j.j.j.j.m.m.j.d.A.d.' =.%.>.o...% a b b b b ",
"b x x x O 0.F.F.F.b.K.K.F.F.G.G.&.&.&.&.&.&.&.&.&.&.&.&.&.&.&.&.;.;.A.d.o.Z.%X%XL.g :.$.$ t f b b b ",
"b b x x O 0.F.F.F.b.J.#.D.@.G.b.&.&.&.&.&.&.&.&.&.&.&.&.&.&.&.&.D.;.k.k.Z.&Xp.p.P.I.1 :.$ t b b b b ",
"N N b b 1 0.o.o.....&.&.*.*.&.=.Z.Z.Z.Z.Z.Z.Z.Z.&.&.Z.Z.Z.Z.Z.Z. .+.( h...*Xf.s.I.P.s q.r   n v b b ",
"N N b b 1 0.o.o...| %.&.*.*.H.X.&.&.&.&.&.&.&.&.&.&.&.&.&.&.&.&. .+...| | O v.U.I.a.s 6.= * n v b b ",
"N m b b O 0.&.o.| g.V.S.| } j.g.k.k.k.k.k.k.k.k.o.o.k.k.k.k.k.k.o.X.&.&.&.s + u.8.1 O 6.5 w A A b b ",
"N m b b O 0.&.o.j.g.&.{ | z.g.j.Z.j.Z.Z.Z.Z.Z.j.Z.Z.Z.Z.Z.Z.Z.Z.o.o.;.&.O.S.+ @ 1 $.6.6.w 5 A A b b ",
"b b b b O 0.&.&.X.o.&.=. .) ( ( | | | | | | | | | | | | | | | | X.o.j.S.&.[ &.&.A.k.l.g.$ e l N b b ",
"b b b b O 0.;.&.S.&.}.XXW.{.Y.(.`.`.`.`.`.`.`.`.`.`.`.`.`.`.`.`.XXXX!.}..XZ.&.&.Z.k.g.g.t - F j b b ",
"N b b b O 0.Z.&.k.k.E E Q Y ~ J Q Q Q Q Q Q Q Q U Q Q Q Q Q Q Q P P I I e . +.X.@.&.r.X.& ; z B b b ",
"N b b b O 0.Z.&.k.k.E E V.F.M.M.F.F.F.F.F.F.F.F.F.F.F.F.F.F.F.F.A.n.o.XXe e X.O.D.&.X.=.& & B b b b ",
"N b b b O 0.&.&.k.o.Q Q &.=.o.j.&.&.&.&.&.&.&.&.&.&.&.&.&.&.&.&.o.o.| ~.9 9 &.o.B.B.&.&.* * m b b b ",
"N N b b O 0.&.&.B.o.Q Q X.=.o.o.&.&.&.&.&.&.&.&.&.&.&.&.&.&.&.&.o.o.| ~.9 9 &.o.B.B.&.&.* * b b b b ",
"N b b b O 0.V.&.k.k.Q Q B.B.n.A.&.&.&.&.&.&.&.&.&.&.&.&.&.&.&.&.n.A.g.).t 6 j.o.j.j.=.O.e 6 l l b b ",
"N b b b O 0.&.&.k.k.Q Q &.Z.A.A.&.&.&.&.&.&.&.&.&.&.&.&.&.&.&.&.n.A.k._.0 6 j.o.j.j.=.O.e 6 l l b b ",
"N b b j 1 0.&.&.k.k.Q E &.&.B.A.B.B.B.B.B.B.B.B.B.B.B.B.B.B.B.B.o.o.+.~.t 0 ;.;.V.V.V.&.e * x x b b ",
"N b b b 1 0.&.&.k.k.Q E &.&.B.A.&.&.&.&.&.&.&.&.&.&.&.&.&.B.&.&.X.o.+.|.0 0 ;.;.V.V.V.&.e * x x b b ",
"N b b b 1 4.=.&.o.o.W W %.*.&.&.o.o.o.o.o.&.o.o.o.o.o.o.&.o.o.o.&.&.&.|.3 3 o.o.o.o.&.&.0 0 N N b b ",
"N b b b 1 0.=.&.o.o.W W *.*.&.&.o.o.o.o.o.&.o.o.o.o.o.o.&.&.o.o.&.V.&.|.3 3 o.o.o.o.&.&.0 0 N N b b ",
"N m b b O 0.Z.o.g.g.U L | z.] l.o.o.o.o.o.| ..| o.o.o.| ....o.o._ )  .W.: 2 &.&.X.X.V.&.0 0 b b b b ",
"N m b b O 0.Z.o.g.] L T `.`.oX/.).`.).).).).`.`.).).).`.`.`.).).Q.T.W.[.2 < S.[ X.X.V.&.0 6 b b b b ",
"n v b b O 3.8.-.6.e.* X 6 6 # t 6 6 6 6 6 6 6 6 6 6 6 6 6 6 6 6 & p & - % a <.q.&.&.V.V.t - v v b b ",
"n c x x 1 3.7.-.6.7.r * w 6 0 0 e e e e e e e e e e e e e e e e y & - - - - <.<.&.&.F.F.t - v v b b ",
"N m b b 1 0.Z.&.k.A.b.F.A.{ A.n.&.&.&.&.&.&.&.&.&.&.=.=.&.&.&.&.o.z.%.>.9.%.F.A.o.o.&.&.q q j b b b ",
"N b b b 1 0.B.B.k.k.b.G.o.A.n.n.&.&.&.&.&.&.&.&.&.&.&.&.&.&.&.&.j.z.>.&.-.-.F.A.o.o.V.&.7 q b b b b ",
"N b b b 1 8.o.X.o.| >.;.O.O.=.=.&.&.&.&.&.&.&.&.&.&.&.&.&.&.&.&.j.o.&.&.%.>.A.d.| | B.B.9 9 b b b b ",
"N b b b 1 6.o.X.o.| &.%.=.X.=.X.&.&.&.&.&.&.&.&.&.&.&.&.&.&.&.&.k.k.>.&.&.>.d.A.h.h.B.B.9 9 b b b b ",
"k b b b Z 2.w.0.3.0.0.0.3.3.0.0.0.0.0.0.0.0.0.0.0.0.0.0.0.0.0.0.0.0.0.0.3.3.0.0.0.w.w.2.t 0 b b b b ",
"R b b N o 4 O o 1 1 O O 1 1 O O O O O O O O O O O O O O O O O O 1 1 O O 1 1 O O O O o 1 # t b b b b "
};
