/* XPM */
static char *_28a535678724458939a326668312a4a6gHQ3uP5wsa2I98E[] = {
/* columns rows colors chars-per-pixel */
"50 50 243 2 ",
"   c #1D0C02",
".  c #180C09",
"X  c #0A1609",
"o  c #1C1303",
"O  c #1C1608",
"+  c #0D0C15",
"@  c #1A0B1D",
"#  c #160C18",
"$  c #0B1618",
"%  c #131215",
"&  c #1A1314",
"*  c #14131A",
"=  c #1A141B",
"-  c #18191D",
";  c #240B01",
":  c #2B0B02",
">  c #230C0B",
",  c #2B0607",
"<  c #350300",
"1  c #3B0301",
"2  c #330A02",
"3  c #380A08",
"4  c #241501",
"5  c #2C1301",
"6  c #231A01",
"7  c #2A130B",
"8  c #331203",
"9  c #361508",
"0  c #250C14",
"q  c #281618",
"w  c #361113",
"e  c #282302",
"r  c #3A2401",
"t  c #352A00",
"y  c #3B2B00",
"u  c #342406",
"i  c #293100",
"p  c #393004",
"a  c #25211E",
"s  c #3A2C18",
"d  c #140D24",
"f  c #1C0C22",
"g  c #140E2B",
"h  c #1B0829",
"j  c #0A1424",
"k  c #151222",
"l  c #191427",
"z  c #1A1437",
"x  c #150E30",
"c  c #240A24",
"v  c #291B29",
"b  c #2B1D35",
"n  c #241A3D",
"m  c #331837",
"M  c #311D2A",
"N  c #1E2237",
"B  c #1E262B",
"V  c #27232A",
"C  c #3A2827",
"Z  c #232335",
"A  c #252938",
"S  c #372B38",
"D  c #2B3939",
"F  c #34333C",
"G  c #3C343C",
"H  c #363636",
"J  c #440203",
"K  c #5D1D04",
"L  c #5D1D0B",
"P  c #591809",
"I  c #4C1E14",
"U  c #471D18",
"Y  c #551D13",
"T  c #5C1D13",
"R  c #591A19",
"E  c #481907",
"W  c #641604",
"Q  c #641B04",
"!  c #6B1A03",
"~  c #64150B",
"^  c #6C150C",
"/  c #631B0D",
"(  c #6A1B0B",
")  c #6D1304",
"_  c #721708",
"`  c #641513",
"'  c #6B1613",
"]  c #631B13",
"[  c #6A1B13",
"{  c #621B1A",
"}  c #6C1B1A",
"|  c #68151A",
" . c #711C11",
".. c #452807",
"X. c #5C2002",
"o. c #5A210D",
"O. c #56220C",
"+. c #4D2214",
"@. c #4C231B",
"#. c #422B1C",
"$. c #4B2B1C",
"%. c #442817",
"&. c #532215",
"*. c #54221B",
"=. c #5B221B",
"-. c #5A2516",
";. c #453315",
":. c #5D3E12",
">. c #622002",
",. c #62210C",
"<. c #6A230F",
"1. c #632112",
"2. c #65241C",
"3. c #663E1A",
"4. c #7C310A",
"5. c #581A24",
"6. c #651B25",
"7. c #4A2324",
"8. c #462927",
"9. c #532825",
"0. c #462B39",
"q. c #43323A",
"w. c #503A2A",
"e. c #683A29",
"r. c #6B3634",
"t. c #144E2E",
"y. c #5C4809",
"u. c #5A461C",
"i. c #684605",
"p. c #64431B",
"a. c #69471C",
"s. c #694F02",
"d. c #79691B",
"f. c #5A4626",
"g. c #584634",
"h. c #4E462D",
"j. c #63442B",
"k. c #684625",
"l. c #664330",
"z. c #604A35",
"x. c #704123",
"c. c #736638",
"v. c #231F41",
"b. c #2E1E45",
"n. c #252442",
"m. c #2C2B4B",
"M. c #342C44",
"N. c #3B2D44",
"B. c #342D4D",
"V. c #3B2C4D",
"C. c #3C274C",
"Z. c #2C324C",
"A. c #2A3647",
"S. c #353345",
"D. c #3B3344",
"F. c #34324C",
"G. c #3B324B",
"H. c #383A46",
"J. c #2B2A55",
"K. c #352E53",
"L. c #3B2D52",
"P. c #3B2C5C",
"I. c #39295D",
"U. c #2E3353",
"Y. c #2F315F",
"T. c #343353",
"R. c #3A3354",
"E. c #33335C",
"W. c #3B3259",
"Q. c #333A51",
"!. c #3C2C63",
"~. c #372D62",
"^. c #383263",
"/. c #432C45",
"(. c #422D4C",
"). c #472A4B",
"_. c #413348",
"`. c #432D53",
"'. c #42285A",
"]. c #433254",
"[. c #432F62",
"{. c #3F5B45",
"}. c #56424E",
"|. c #654240",
" X c #786146",
".X c #716F58",
"XX c #697F69",
"oX c #696F6B",
"OX c #983903",
"+X c #875A4B",
"@X c #93704C",
"#X c #866049",
"$X c #817869",
"%X c #508A6D",
"&X c #6D8366",
"*X c #BBAC2D",
"=X c #BEB222",
"-X c #BDAE34",
";X c #BAB235",
":X c #B8AD1D",
">X c #C6AC2C",
",X c #C2A83E",
"<X c #C1B134",
"1X c #C2BA29",
"2X c #B2AF4B",
"3X c #B4AA58",
"4X c #AFB156",
"5X c #BAA667",
"6X c #B5A478",
"7X c #C6A656",
"8X c #C6A648",
"9X c #D39C79",
"0X c #FA9666",
"qX c #F88E63",
"wX c #CAA467",
"eX c #EC9B6D",
"rX c #F8DD75",
"tX c #FEE279",
"yX c #F6DB58",
"uX c #AAAD8A",
"iX c #E39C86",
"pX c #CCAA84",
"aX c #FFBE86",
"sX c #EBD79B",
"dX c #F2D48F",
"fX c #DCCABE",
"gX c #E9D6B0",
"hX c #E1EA97",
"jX c #D6CEC5",
"kX c #FFDCC6",
"lX c #FDE8C6",
"zX c #FDE6D4",
"xX c #FEECD4",
"cX c #FEEDDA",
"vX c #F9E9D9",
"bX c #E9FCDD",
"nX c #FEF3DA",
"mX c #FCF2D5",
"MX c #CCFFE9",
"NX c #DFFCED",
"BX c #FBECE3",
"VX c #FAF5E6",
"CX c #EAFCE4",
/* pixels */
"/ / / / / / / / / / / / / / / / o.o.T T ] { / ] ( / L L %.$.7.7.T T R R O.E ! ) ^ ^ / / Q Q T T / / ",
"/ / / / / / / / / / / / / / / / O.o.] T ] ] P [ / / ] ] ; ; , w J T { 2.E -.! ! ( ^ / / Q Q T T / / ",
"/ / / / / / / / / / / / / / / / W ( / / L / ( W R =.S # c c _.@ G.d # # 7.7.@.@.{ ] ] ] Q Q ( ( / / ",
"/ / / / / / / / / / / / / / / / W ( / ] L / ( / *.< = G /./.S _.G.G.D.D.3 , 2 @.{ { / / Q Q ( ( / / ",
"/ / / / / / / / / / / / / / / / ^ ^ ( Q ,.K P T # = B.R.W.E.K.R.N N q & < < 3 2 ] ] / / L L ' ' / / ",
"/ / / / / / / / / / / / / / / / ^ ( W ( K L =.1 = G K.R.J.J.W.B.n.N C C *.I @.7.] ] Q Q L L ' ' / / ",
"/ / / / / / / / / / / / / / / / { { K Q L L H % K.K.B.W.R.R.K.W.V v L ,.K >.] ] / / Q Q L / ] ] / / ",
"/ / / / / / / / / / / / / / / / { R <.K 1.L % F R.K.W.B.R.F.W.K.v = L L K ,.~ ] / / Q Q / / ] ] / / ",
"/ / / / / / / / / / / / / / / / Y -./ [ C   x L.E.E.(.V.N.N.F.F.B.x Y =.P ,.} ' L L Q Q / / ] ] / / ",
"/ / / / / / / / / / / / / / / / Y -.[ ( > 7 K.L.Y.E.(.(.N.D.F.F.F.g 1 R / L ` ' L L Q Q / / ] ] / / ",
"/ / / / / / / / / / / / / / / / Q Q 7.; c 0.R.B.L.L.T.T.`.`.F.F.W.B.> C [ ] ] ] ] ] / / / / / / / / ",
"/ / / / / / / / / / / / / / / / Q Q 7.: @ /.B.W.L.L.T.T.V.L.F.F.B.n C   [ / ] ] / ] Q Q Q / / / / / ",
"/ / / / / / / / / / / / / / / / =.I # # ].L.V.`.F.F.L.L.T.E.L.L.(.S V & ] T W W ] / / / / / / / / / ",
"/ / / / / / / / / / / / / / / / I 1 @ G V.L.].V.F.F.L.L.T.U.L.L.V.b V & L ] W ( / / / / / / / / / / ",
"/ / / / / / / / / / / / / / / / k k N.(.R.B.B.T.V.V.F.F.L.L.L.L.T.E.N A : #._ ) T T T ] ^ ^ L L / / ",
"/ / / / / / / / / / / / / / / / k F (.V.T.T.T.T.V.V.F.F.L.L.L.L.E.U.A A ; #._ _ T T T T ^ ^ L L / / ",
"{ ` X.X./ / ] ] R 9.$ * $ $ h c x T.V.R.T.R.N.D.L.L.R.R.Z.T.R.B.E.z Z N , 8./ / ] T L / Q Q ] P / / ",
"] { X.K ~ / ] P < 1 A.D A.H.(./.B.R.L.L.R.B.D.N.R.L.K.K.Z.T.B.v.v.n.Z Z , U ~ <.] { ] ] Q Q ] ] / / ",
"! !  .^ / / 8.7 V.L.T.T.`.V.L.L.`.L.D.D.T.U.[.'.R.B.N.G.L.R.L.b.V V b Z f v @ @ $ * . S *.*.( ^ / / ",
"Q ! ^ ' ] [ C   ].L.B.T.`.C.R.R.L.V.G.S T.T.'.'.L.B.G.G.L.L.P.L.H.D.M.N.M.G.G D.F F q.. < =.~ [ / / ",
"{ { Y *.Q Q +.3 < < > q.F D.G S (.`.Z.Q.W.K.!.!.U.U.(.V.B.F.G.G.P.P.F.T.R.F.].L.V.`.0.0.1 I K >./ / ",
"{ { &.*.Q Q &.+.@.9.8.> k # = = h C.Q.Z.K.K.~.!.U.U.V.V.F.F.G.G.P.P.F.F.F.F.V.L.`.h 0 0.*.*.,.K / / ",
"/ L ( W ' } +.@.&.Y } T Q Q r 3X2Xe 4   O o $ X F F S.S.(.(.K.K.R.F.o 4 o 6 o o 1 6.` ] ] ] Q Q / / ",
"/ L ( W ' ' 2 9 3 &.` { Q / r 5X2X2Xg.xXBX$XXX$ * * k d f f g g g g 4 6X3X3XuXe 5.5.] ] ] ] Q / / / ",
"/ 1.+.*.6 6 u.u.8 8 5 %.L L r 6X*X<Xl.zXCXCXt.%XxXxXmXxXxXxXNXt.&X{.7X8X>X>X4Xi / / ! ! T T / / / / ",
"L / I 3 e f.u.u.e.j.w.5 K o...gX<X*Xj.cXbXXXt.%XcXxXmXnXxXxX%Xt.&XNXs.7X>XyXhXi / / ! ! T T / / / / ",
"! Q 8.7 3.p.k.k.l.l.j.8 9 @.t sXtXrX3.lXlX@X%X%XcXBXzXcXxXnX&X.X@XlXi.dXrXtXsX..] [ L Q { { Q Q / / ",
"Q ! 7 g.k.p...+.$.e.j.f.2 9.t sX,X8Xx.9XpXpXMXMXBXzXzXBXxXlXbXuXpXpXi.7X,X,X5Xr ] ] L L ] { Q Q / / ",
"( W 7 g.a.a.;.f.f.;.p.k.8 %.y 3X-X-X4.eXqXqXxXcXcXcXBXBXnXnXkXiXqX0Xs.3X;X;X5Xy ] ] O.O.| | ^ ^ / / ",
"W W 7 g.3.k.;.g.f.y p.k.; $.y 3X-X<X4.9X0X0XnXcXzXcXVXBXcXxXkXiX0XqXy.7X;X;X3Xr ] ] O.O.| | ^ ^ / / ",
",.L 3 7.f.f.u.a.f.;.g.4 1.L ..5X=X=Xr.r.f.lXzXcXcXcXvXVXzXnXzXxXj.j.i.wX>X>X3Xp ' ' X.Q L L / / / / ",
"L L 7.w f.f.k.u.;.;.f.6 1.L ..5X:X1Xr.+Xu.k.z.cXxXxXvXVXxXf.l.j.j. Xi.wX>X>X3Xt ' ' Q X.L L / / / / ",
"L T O.O.> q #.#.#.g.9 %.^ ' t 6X5Xa.g. XoX& ; ; $ $ }.}.}.M A N k d d.3X;X;X5Xy T T / W ] ] / / / / ",
"L o.X.O.8.0 5 #.g.g.: $.' ^ t u.y.y.4   . & ;.gXB A M C M S N N F k d.s.*X;X5Xy T T / W ] ] / / / / ",
"_ _ ] L Y R 6 ;.p.a.l + q 0 # * f @ @ D.W.L.'.L.dX..V a s q fX  q.# c.c.f.r E U ] ] ! Q >.>.] ] / / ",
"_ ) ] ] =.1 s h.p.3.- H 0.0.G G M.G.N.D.K.L.L.'...sXa jX8.jXs 4 G = 6 c.c.r 9.I ] ] Q ! >.>.] ] / / ",
"^ ^ T 1.I 3 ..k.k.f.A H.Y.^.K.L.W.B.[.P.R.T.L.L.L.B.aXOXfXw.F # ~.~.. .X#X9 1.] / / T T L L ' ' / / ",
"~  .T P 9.3 p.:.u.5 l l Y.E.W.P.K.L.[.I.g B.V.R.L.R._ aX8.8.D.k ~.~.o . #X..P / / / T T L Q ] ] / / ",
"o.o.] { C 7 x.x.8 @.* V [.!.F.G.T.Z.H X @ D.B.R.H q.U.U.R.R.q.@ `.`.F *  Xu 1.L ( ( ! ! ' ' L L / / ",
"o.o.] ] C > x.e.8 $.+ V P.I.B.B.Z.Q.X X f D.T.B.G S T.U.B.B.0 q.V.`.F $ u u P o.( ( ! ! ' ' L L / / ",
"/ P } ` 6 6 r.w ' } $ A Z F.D.G.0.0 J R % G J.^.B.R.`.`.K.P.d G.F.B.G.G.; #.Y o.P 1./ / ^ } Q Q / / ",
"/ 1.` } o h.|.w } ` $ B A S.M.D.0 8.R R - F ^.I.R.R.(.(.P.W.d G.F.R.M.F.7 ; -.O.o./ / / } ~ Q Q / / ",
"L o.` ` 8 f.5 5 Y -.9., b _.F * J 6.I *.+ Z n.n.Z.R.I.!.T.U.% F N.(.T.m.R.x > 8.&.&.] ] Q Q 2.Y / / ",
"L o.P [ 5 j.5 $.2.Y 7., b N.H.# R 6.I < H.S.B.R.T.T.!.!.Z.Z.- H _.N.R.T.R.R.0.> < *.] ] Q Q P 2./ / ",
"( ~ %.8 h.6 ( W Y T *.< G.S.1 5.Q ,.8., n.v.).).N.N.F.F././.g g k D.F.G.G.M._.f (.h @ c ....Q ! / / ",
"^ ( %.5 g.4 ( ( R 2.+.2 F.k 5.5.Q Q , w n.v.m 0.V.N.A.F.N.].V.M.@ @ d d g g @ @ m m b @ : ..! W / / ",
"Q / 9.3 2 U { R Q Q *.2 H & / / @.; % F H.A `.].S.S.G G A.A././.S q.R.F.H H G G G.S.D D . & | 6./ / ",
"/ / 7.w 2 9.T { Q Q *.< & S / / $.: % * + * h h j j # * j j f f # # g d % % & % d d $ $ & & 6.| / / ",
"/ / / / / / / / / / / / / / / / / / / / / / / / / / / / / / / / / / / / / / / / / / / / / / / / / / ",
"/ / / / / / / / / / / / / / / / / / / / / / / / / / / / / / / / / / / / / / / / / / / / / / / / / / "
};
